<svg xmlns="http://www.w3.org/2000/svg" width="30.057" height="24.045" viewBox="0 0 30.057 24.045">
  <path id="cargo" d="M29.305,16.531h-.751V11.454a2.254,2.254,0,0,0-.662-1.592L23.2,5.171a2.254,2.254,0,0,0-1.592-.662H19.537V2.254A2.255,2.255,0,0,0,17.283,0H5.26A2.255,2.255,0,0,0,3.006,2.254V4.508H.376A.377.377,0,0,0,0,4.884v.751a.377.377,0,0,0,.376.376H13.15a.377.377,0,0,1,.376.376v.751a.377.377,0,0,1-.376.376H1.879A.377.377,0,0,0,1.5,7.89v.751a.377.377,0,0,0,.376.376h9.768a.377.377,0,0,1,.376.376v.751a.377.377,0,0,1-.376.376H.376A.377.377,0,0,0,0,10.9v.751a.377.377,0,0,0,.376.376h9.768a.377.377,0,0,1,.376.376v.751a.377.377,0,0,1-.376.376H3.006v6.011a4.508,4.508,0,1,0,9.017,0h6.011a4.508,4.508,0,1,0,9.017,0h2.254a.754.754,0,0,0,.751-.751v-1.5A.754.754,0,0,0,29.305,16.531ZM7.514,21.791a2.254,2.254,0,1,1,2.254-2.254A2.255,2.255,0,0,1,7.514,21.791Zm15.028,0A2.254,2.254,0,1,1,24.8,19.537,2.255,2.255,0,0,1,22.542,21.791ZM26.3,12.023H19.537V6.763h2.071L26.3,11.454Z" fill="#00801e"/>
</svg>
