<svg xmlns="http://www.w3.org/2000/svg" width="18.013" height="17.145" viewBox="0 0 18.013 17.145">
  <g id="Icon_feather-edit-3" data-name="Icon feather-edit-3" transform="translate(-9.05 -9.4)">
    <g id="Path_60" data-name="Path 60">
      <path id="Path_71" data-name="Path 71" d="M25.9,26.54H18a1.06,1.06,0,1,1,0-2.11h7.9a1.06,1.06,0,1,1,0,2.11Z" fill="#333"/>
    </g>
    <g id="Path_61" data-name="Path 61">
      <path id="Path_72" data-name="Path 72" d="M10.08,26.54a1.06,1.06,0,0,1-1-1.31l.88-3.51a1.09,1.09,0,0,1,.28-.49l11-11h0a3,3,0,0,1,2.08-.83,2.92,2.92,0,0,1,2.05,4.95l-11,11a1,1,0,0,1-.49.28l-3.52.88a1.07,1.07,0,0,1-.28.03Zm1.83-4L11.53,24l1.52-.38L23.84,12.88a.82.82,0,0,0,0-1.12.9.9,0,0,0-.57-.25.81.81,0,0,0-.58.23Z" fill="#333"/>
    </g>
  </g>
</svg>
