<svg xmlns="http://www.w3.org/2000/svg" width="11.438" height="11.438" viewBox="0 0 11.438 11.438">
  <path id="Icon_awesome-info-circle" data-name="Icon awesome-info-circle" d="M5.954.234a5.719,5.719,0,1,0,5.719,5.719A5.72,5.72,0,0,0,5.954.234Zm0,2.537a.969.969,0,1,1-.969.969A.969.969,0,0,1,5.954,2.771ZM7.245,8.629a.277.277,0,0,1-.277.277H4.939a.277.277,0,0,1-.277-.277V8.075A.277.277,0,0,1,4.939,7.8h.277V6.323H4.939a.277.277,0,0,1-.277-.277V5.492a.277.277,0,0,1,.277-.277H6.415a.277.277,0,0,1,.277.277V7.8h.277a.277.277,0,0,1,.277.277Z" transform="translate(-0.234 -0.234)"/>
</svg>
