<svg id="Group_22" data-name="Group 22" xmlns="http://www.w3.org/2000/svg" width="20.769" height="16.116" viewBox="0 0 20.769 16.116">
  <path id="Path_29" data-name="Path 29" d="M15.68,170.984v-1.07a.627.627,0,0,0-.677-.677.7.7,0,0,0-.606.3.623.623,0,0,0-.57-.3.576.576,0,0,0-.5.25v-.214h-.374v1.711h.374v-.945c0-.3.16-.446.41-.446s.374.16.374.446v.945h.374v-.945a.394.394,0,0,1,.41-.446c.25,0,.374.16.374.446v.945Zm5.544-1.711h-.606v-.517h-.374v.517H19.9v.339h.339v.784c0,.392.16.624.588.624a1,1,0,0,0,.464-.125l-.107-.321a.586.586,0,0,1-.321.089c-.178,0-.25-.107-.25-.285v-.767h.606v-.339Zm3.173-.036a.5.5,0,0,0-.446.25v-.214h-.374v1.711h.374v-.963c0-.285.125-.446.357-.446a1.042,1.042,0,0,1,.232.036l.107-.357a1.179,1.179,0,0,0-.25-.018Zm-4.8.178a1.224,1.224,0,0,0-.7-.178c-.428,0-.713.214-.713.553,0,.285.214.446.588.5l.178.018c.2.036.3.089.3.178,0,.125-.143.214-.392.214a.984.984,0,0,1-.57-.178l-.178.285a1.261,1.261,0,0,0,.731.214c.5,0,.784-.232.784-.553,0-.3-.232-.464-.588-.517l-.178-.018c-.16-.018-.285-.053-.285-.16,0-.125.125-.2.321-.2a1.284,1.284,0,0,1,.535.143l.16-.3Zm9.948-.178a.5.5,0,0,0-.446.25v-.214h-.374v1.711H29.1v-.963c0-.285.125-.446.357-.446a1.042,1.042,0,0,1,.232.036l.107-.357a1.179,1.179,0,0,0-.25-.018Zm-4.778.891a.856.856,0,0,0,.909.891.887.887,0,0,0,.606-.2l-.178-.3a.72.72,0,0,1-.446.16.506.506,0,0,1-.517-.553.526.526,0,0,1,.517-.553.72.72,0,0,1,.446.16l.178-.3a.887.887,0,0,0-.606-.2.856.856,0,0,0-.909.891Zm3.459,0v-.856h-.374v.214a.644.644,0,0,0-.535-.25.892.892,0,0,0,0,1.783.6.6,0,0,0,.535-.25v.214h.374Zm-1.373,0a.518.518,0,1,1,1.034,0,.518.518,0,1,1-1.034,0Zm-4.475-.891a.892.892,0,0,0,.018,1.783,1.091,1.091,0,0,0,.7-.232l-.178-.267a.852.852,0,0,1-.5.178.481.481,0,0,1-.517-.41h1.266v-.143a.788.788,0,0,0-.784-.909Zm0,.321a.417.417,0,0,1,.428.41h-.891a.451.451,0,0,1,.464-.41Zm9.288.57V168.6H31.3v.891a.644.644,0,0,0-.535-.25.892.892,0,0,0,0,1.783.6.6,0,0,0,.535-.25v.214h.374Zm-1.373,0a.518.518,0,1,1,1.034,0,.518.518,0,1,1-1.034,0Zm-12.515,0v-.856h-.374v.214a.644.644,0,0,0-.535-.25.892.892,0,0,0,0,1.783.6.6,0,0,0,.535-.25v.214h.374Zm-1.391,0a.518.518,0,1,1,1.034,0,.518.518,0,1,1-1.034,0Z" transform="translate(-11.9 -154.903)"/>
  <rect id="Rectangle_47" data-name="Rectangle 47" width="5.616" height="10.09" transform="translate(7.577 1.373)" fill="#ff5f00"/>
  <path id="Path_30" data-name="Path 30" d="M7.933,6.418a6.435,6.435,0,0,1,2.442-5.045A6.416,6.416,0,1,0,6.418,12.836a6.378,6.378,0,0,0,3.958-1.373A6.408,6.408,0,0,1,7.933,6.418Z" transform="translate(0 0)" fill="#eb001b"/>
  <path id="Path_31" data-name="Path 31" d="M138.359,6.418a6.411,6.411,0,0,1-10.376,5.045,6.432,6.432,0,0,0,0-10.09,6.411,6.411,0,0,1,10.376,5.045Z" transform="translate(-117.59 0)" fill="#f79e1b"/>
</svg>
