<svg xmlns="http://www.w3.org/2000/svg" width="17.965" height="17.98" viewBox="0 0 17.965 17.98">
  <g id="seaIn" transform="translate(-9.06 -8.95)">
    <path id="Path_90" data-name="Path 90" d="M17.17,25.17a8.11,8.11,0,1,1,8.11-8.11,8.11,8.11,0,0,1-8.11,8.11Zm0-14.82a6.72,6.72,0,1,0,6.72,6.71,6.72,6.72,0,0,0-6.72-6.71Z" fill="#bbb"/>
    <path id="Path_91" data-name="Path 91" d="M26.34,26.93a.67.67,0,0,1-.49-.21L22,22.92a.71.71,0,0,1,0-1,.69.69,0,0,1,1,0l3.81,3.81a.69.69,0,0,1,0,1,.67.67,0,0,1-.47.2Z" fill="#bbb"/>
  </g>
</svg>
