<svg xmlns="http://www.w3.org/2000/svg" width="8.924" height="8.932" viewBox="0 0 8.924 8.932">
  <g id="Icon_feather-search" data-name="Icon feather-search" transform="translate(-9.06 -8.95)">
    <g id="Path_7" data-name="Path 7" transform="translate(9.06 8.95)">
      <path id="Path_90" data-name="Path 90" d="M13.089,17.008a4.029,4.029,0,1,1,4.029-4.029,4.029,4.029,0,0,1-4.029,4.029Zm0-7.362a3.338,3.338,0,1,0,3.338,3.333,3.338,3.338,0,0,0-3.338-3.333Z" transform="translate(-9.06 -8.95)" fill="#333"/>
    </g>
    <g id="Path_8" data-name="Path 8" transform="translate(15.386 15.287)">
      <path id="Path_91" data-name="Path 91" d="M24.052,24.3a.333.333,0,0,1-.243-.1L21.9,22.309a.353.353,0,0,1,0-.5.343.343,0,0,1,.5,0L24.286,23.7a.343.343,0,0,1,0,.5A.333.333,0,0,1,24.052,24.3Z" transform="translate(-21.794 -21.705)" fill="#333"/>
    </g>
  </g>
</svg>
