<svg xmlns="http://www.w3.org/2000/svg" width="103.436" height="16.578" viewBox="0 0 103.436 16.578">
  <g id="stars4" transform="translate(-441 -2516)">
    <path id="Icon_feather-star" data-name="Icon feather-star" d="M9.665,2l2.368,4.8,5.3.774L13.5,11.3l.9,5.273L9.665,14.087,4.928,16.578l.9-5.273L2,7.572,7.3,6.8Z" transform="translate(440 2515)" fill="#333" stroke="#333" stroke-linecap="round" stroke-linejoin="round" stroke-width="2"/>
    <path id="Icon_feather-star-2" data-name="Icon feather-star" d="M9.665,2l2.368,4.8,5.3.774L13.5,11.3l.9,5.273L9.665,14.087,4.928,16.578l.9-5.273L2,7.572,7.3,6.8Z" transform="translate(461.527 2515)" fill="#333" stroke="#333" stroke-linecap="round" stroke-linejoin="round" stroke-width="2"/>
    <path id="Icon_feather-star-3" data-name="Icon feather-star" d="M9.665,2l2.368,4.8,5.3.774L13.5,11.3l.9,5.273L9.665,14.087,4.928,16.578l.9-5.273L2,7.572,7.3,6.8Z" transform="translate(483.054 2515)" fill="#333" stroke="#333" stroke-linecap="round" stroke-linejoin="round" stroke-width="2"/>
    <path id="Icon_feather-star-4" data-name="Icon feather-star" d="M9.665,2l2.368,4.8,5.3.774L13.5,11.3l.9,5.273L9.665,14.087,4.928,16.578l.9-5.273L2,7.572,7.3,6.8Z" transform="translate(504.58 2515)" fill="#333" stroke="#333" stroke-linecap="round" stroke-linejoin="round" stroke-width="2"/>
    <path id="Icon_feather-star-5" data-name="Icon feather-star" d="M9.665,2l2.368,4.8,5.3.774L13.5,11.3l.9,5.273L9.665,14.087,4.928,16.578l.9-5.273L2,7.572,7.3,6.8Z" transform="translate(526.107 2515)" fill="none" stroke="#333" stroke-linecap="round" stroke-linejoin="round" stroke-width="2"/>
  </g>
</svg>
