<svg xmlns="http://www.w3.org/2000/svg" width="12.406" height="12.493" viewBox="0 0 12.406 12.493">
  <path id="Icon_material-access-alarm" data-name="Icon material-access-alarm" d="M13.906,3.789,11.053,1.395l-.8.949,2.853,2.394ZM5.147,2.344l-.794-.949L1.5,3.783l.8.949L5.147,2.344ZM8.013,5.2h-.93V8.926l2.946,1.768.465-.763L8.013,8.46ZM7.7,2.722a5.583,5.583,0,1,0,5.583,5.583A5.583,5.583,0,0,0,7.7,2.722Zm0,9.925a4.342,4.342,0,1,1,4.342-4.342A4.339,4.339,0,0,1,7.7,12.647Z" transform="translate(-1.5 -1.395)" fill="#333"/>
</svg>
